<svg id="Layer_1" data-name="Layer 1" xmlns="http://www.w3.org/2000/svg" viewBox="0 0 570.59 73.66"><defs><style>.cls-1{fill:#fed131;}.cls-2{fill:none;}</style></defs><title>underline-stroke</title><g id="Group_13" data-name="Group 13"><path id="Path_4" data-name="Path 4" class="cls-1" d="M504,387.53a44.7,44.7,0,0,1,5,4.28c5.9,2,16.45,2.44,19.73,6.29.1,1.45-7,7.76-8.56,7.29-15.09-.44-23.14-8.64-39.76-9.55-1.53-.48-5.76,3.88-10.09,6.8,0,0,1.53.47,3.32.89-6,4-16.58,3.5-24.26,6.65a10.51,10.51,0,0,1,3.11,1.54c-7.44-4.17-20.7.22-30.55,2.41a25.39,25.39,0,0,1-5.16-1.18c-8.72,2.93-18.06,3-28.85,7.67-9.23,3.13-23.23,2.59-35.72,4.9a154.18,154.18,0,0,1-16.79.26l-17-.47a145.12,145.12,0,0,0-16.55.68,64.44,64.44,0,0,0-15.6,3.8,18.63,18.63,0,0,1-15.15-2.16c-12.76,8.92-36.21,4.46-53.08,1.2a17.73,17.73,0,0,1-12.07-8.2,180.34,180.34,0,0,1-51.9-2.31l-8.2-1.54L138,415.17c-5.25-1.1-10.5-2.28-15.83-3.59a261.64,261.64,0,0,1-32.47-10.19,32.63,32.63,0,0,0-12.83-.73l-3.61-3.22c-13.36-2.84-26.59-1.91-37.72-6.4-15.28-6.35-14.58-16.65-14.4-25.6,18.35-1.81,38.59-12.84,62.76-.34,6.52,4,18,3.34,27.28,4.34,8-.09,15.26,6.34,23.15,2.47,7.93,8.82,29.6,19.49,46.86,19.38,1.23,1-.45,1.39,1.81,2.67,24.55-2.14,50.53,3.24,77.78,2.55,13.63-1.18,29.69,1.83,46.36-1.83,1.53-.69,8.74,1.33,13.25.55,1.54-.77,3.06-1.48,4.58-2.29,11.82-.43,25.1-3.42,33.91-1.38,10.33,1.27,19.16-1.32,28.05-1,13.27.32,34-7.64,46.23-3.78a37.62,37.62,0,0,0,8.94-1.47l4.6,1.43c3-.49,4.25-4.37,7.22-4.86,19.42-2.47,43.14-7.86,54.18-.15C506.64,382.69,500.78,385.13,504,387.53Z" transform="translate(-21.07 -359.22)"/><path id="Path_5" data-name="Path 5" class="cls-1" d="M585.6,390c-.5,1.55,2.49,1.35,4.26.75a15,15,0,0,0-6.83-3.26l5.38-.6c2.15-3.87-5.42,0-2.55-1.93,3-.2,5.41,0,4.34,1.91-.65-.76-1.81,0-3.62,0,.16,2.32,3.18,2.71,5.07,3.86l-8.34,1.38Z" transform="translate(-21.07 -359.22)"/><path id="Path_6" data-name="Path 6" class="cls-1" d="M566.3,389.66h1.8c.5-1.55-1.34-2.13-3.18-2.7,7.87.75.88,4.25,5.79,5.79C570.65,391.57,565.8,391.19,566.3,389.66Z" transform="translate(-21.07 -359.22)"/><path id="Path_7" data-name="Path 7" class="cls-1" d="M574.81,381.49c3.76,2.31,6.57-.79,8,2.5l-9.13-1.72Z" transform="translate(-21.07 -359.22)"/><path id="Path_8" data-name="Path 8" class="cls-1" d="M519,393.65c-2.31,1.56-1.16.78-5.35,1.18l6-1Z" transform="translate(-21.07 -359.22)"/><path id="Path_9" data-name="Path 9" class="cls-1" d="M399.08,413.68a26.18,26.18,0,0,0,12.38,2.15A22.6,22.6,0,0,1,399.08,413.68Z" transform="translate(-21.07 -359.22)"/><path id="Path_10" data-name="Path 10" class="cls-1" d="M343.42,410.13c0-1.16-1.77-1.32.68-2.08,1.18.5-.13,3.5,3.57,1.49Z" transform="translate(-21.07 -359.22)"/><path id="Path_11" data-name="Path 11" class="cls-1" d="M338.47,404.62l-2.57-1.91C335.89,403.05,336.88,404,338.47,404.62Z" transform="translate(-21.07 -359.22)"/><path id="Path_12" data-name="Path 12" class="cls-1" d="M489.21,407.67l-.48-.55c-.23.15-.49.41-.74.6A10,10,0,0,0,489.21,407.67Z" transform="translate(-21.07 -359.22)"/><path id="Path_13" data-name="Path 13" class="cls-1" d="M480.75,407.31l6.1,1.34a10.07,10.07,0,0,1,1.14-.93C484.12,407.77,485,405.53,480.75,407.31Z" transform="translate(-21.07 -359.22)"/><path id="Path_14" data-name="Path 14" class="cls-1" d="M487.89,406.12l.84,1c4.49-2.92,7.43,1,14.18-1.42A35.08,35.08,0,0,0,487.89,406.12Z" transform="translate(-21.07 -359.22)"/><path id="Path_15" data-name="Path 15" class="cls-1" d="M493.1,402.62l1.69-1.74c1.8,0,1.88,1.16,1.91,1.74l3.54-1.18c1-2.51-10.3-.95-13.3-.73Z" transform="translate(-21.07 -359.22)"/><path id="Path_16" data-name="Path 16" class="cls-1" d="M523.89,376.39l-.15.06.17,0Z" transform="translate(-21.07 -359.22)"/><path id="Path_17" data-name="Path 17" class="cls-1" d="M512.23,372.79l.27,4.06c4.67-1.36,6.09,1.27,11.24-.38l.15-.06C521.24,372.77,516.6,375.27,512.23,372.79Z" transform="translate(-21.07 -359.22)"/><path id="Path_18" data-name="Path 18" class="cls-1" d="M473.33,404.43c4.78-.79,8.34-1.38,9.39-3.9l-9,.61C477.41,402.29,473.84,402.87,473.33,404.43Z" transform="translate(-21.07 -359.22)"/><path id="Path_19" data-name="Path 19" class="cls-1" d="M464.51,398.25l4.14-1-2.09-.93C466.5,396.92,465.87,397.62,464.51,398.25Z" transform="translate(-21.07 -359.22)"/><path id="Path_20" data-name="Path 20" class="cls-1" d="M466.57,396.34c.06-.63-.65-1.1-2.26-1Z" transform="translate(-21.07 -359.22)"/><path id="Path_21" data-name="Path 21" class="cls-1" d="M474.32,391.66c-3.15-2.13-2.35.95-7.15,1.17C467.35,395.73,471.93,392.05,474.32,391.66Z" transform="translate(-21.07 -359.22)"/><path id="Path_22" data-name="Path 22" class="cls-1" d="M454.6,394l-1.91-1.74.19,2.9Z" transform="translate(-21.07 -359.22)"/><path id="Path_23" data-name="Path 23" class="cls-1" d="M422.12,412.89c4-3.3-3.14-2.12-3.82-3.47Z" transform="translate(-21.07 -359.22)"/><path id="Path_24" data-name="Path 24" class="cls-1" d="M448.22,388.63l1.95,2.32.49-1.55c1.2-.2,3-.79,4.24.19C455.3,386.3,450.65,388.81,448.22,388.63Z" transform="translate(-21.07 -359.22)"/><line id="Line_2" data-name="Line 2" class="cls-2" x1="410.36" y1="39.53" x2="405.48" y2="38.57"/><path id="Path_25" data-name="Path 25" class="cls-1" d="M457.13,377.19c-.08-1.16-7.45-3.46.35-3.87-3,.2-7.16,1.18-4.92-1.54-4.77.8.19,2.91-2.7,4.85C452.13,374.5,454.71,377,457.13,377.19Z" transform="translate(-21.07 -359.22)"/><path id="Path_26" data-name="Path 26" class="cls-1" d="M445.06,376.84c-2.42-.19-5.46-.56-6.57.8C440.87,377.24,443.41,379.15,445.06,376.84Z" transform="translate(-21.07 -359.22)"/><path id="Path_27" data-name="Path 27" class="cls-1" d="M441.65,370.66l3.73,1.72-2.58-2.5Z" transform="translate(-21.07 -359.22)"/><line id="Line_3" data-name="Line 3" class="cls-2" x1="377.82" y1="39.57" x2="378.64" y2="43.25"/><path id="Path_28" data-name="Path 28" class="cls-1" d="M428,373.22l8.3-2-7.84-.17c-4.25,2.55-1.85,3.11,1.59,3.46A2.78,2.78,0,0,1,428,373.22Z" transform="translate(-21.07 -359.22)"/><path id="Path_29" data-name="Path 29" class="cls-1" d="M437.8,376.29l2.31-1.56c-.05-.68-3.8.06-7.17.09C435.24,375,437.33,375.38,437.8,376.29Z" transform="translate(-21.07 -359.22)"/><path id="Path_30" data-name="Path 30" class="cls-1" d="M432.94,374.81l-2.91-.27A11.82,11.82,0,0,0,432.94,374.81Z" transform="translate(-21.07 -359.22)"/><path id="Path_31" data-name="Path 31" class="cls-1" d="M378.56,404l7.85-.68A14.79,14.79,0,0,0,378.56,404Z" transform="translate(-21.07 -359.22)"/><path id="Path_32" data-name="Path 32" class="cls-1" d="M421.21,371.1l-1.2.2.2,2.9C422.55,373.22,421.25,371.68,421.21,371.1Z" transform="translate(-21.07 -359.22)"/><path id="Path_33" data-name="Path 33" class="cls-1" d="M410.14,367.65c-2.49-1.34-6.53,1.38-8.29,2,3.11,1.54,6.07.76,9.68.75C407.92,370.37,410.22,368.81,410.14,367.65Z" transform="translate(-21.07 -359.22)"/><path id="Path_34" data-name="Path 34" class="cls-1" d="M399.2,365.94l7.14-1.18C404.35,361.86,402.16,365.15,399.2,365.94Z" transform="translate(-21.07 -359.22)"/><path id="Path_35" data-name="Path 35" class="cls-1" d="M388.4,369.06c-.55.38.07,1.16-1,1.91,1.2,1,3.45.07,5.18.1Z" transform="translate(-21.07 -359.22)"/><path id="Path_36" data-name="Path 36" class="cls-1" d="M454.69,386.1c-2.14.48-4,1-5.87,1.47,3,.11,6.05.18,9.09.21A15,15,0,0,0,454.69,386.1Z" transform="translate(-21.07 -359.22)"/><path id="Path_37" data-name="Path 37" class="cls-1" d="M53.19,399.61c10.11-2.66,27,.46,36.51,1.79,15.16,4.08,35.39,3.22,53.5,6.3l-.41,1.09a82.58,82.58,0,0,0,11.24,3c4.05.82,8.27,1.63,12.59,2.17l12.95,1.65c4.3.48,8.51.95,12.52,1.62l-.63-1.69c-2.65-.69-6.17-1.31-3.74-3,3.46,1.27,8.15,2.8,9.05,4.14l3.1-1.83c2.11,1.54-.55,6.37,6.07,5.73,4.48-4.72,13.91,5.67,15-.91,2.11,4.24,8.53,1.49,11.67,1.92l-1.86-3.21c6.41,2.18,12.31,7.3,15.6,6.71l14,0c5-.14,10-.42,14.52-1,1.94,3.6-9.37-.29-3.71,3.53a47,47,0,0,1,14-2.07c4.95,0,10.16.43,15.49.82s10.79,1,16.18,1a61.2,61.2,0,0,0,15.79-1.57c-.6-.26-2.45-.47-1.16-1.11,4.2,2.4,9.36-.61,16.13.3-.58-1.12-3-1.53-5.73-1.66s-5.65-.15-7.2-.23c1.56-5.89,1.79,1.45,10-1.1-.61-.24-1.83-.73-1.8-1.32,8.09-2,3.58,3.23,9.83,1.63l-3.67-1.49c6.19-.44,1.91-1,8.72-2.94-.68,3.26,3,5.23,4.86,5.34.64-1.52,7.45-1.32,6.23-4.1,9.34,5.23,10.44-3.27,19.24,1.52,3-3-3.8-2.45-3.85-4.78,7.94-3,3.17,2.81,6.29,3.3,2.41-1.55,12.88-4.57,17.83-3l-.15-2.32c7.29,1.14,18.63-.44,21.82,2.26,2.15-3.88-3.18-2.7-8-1.91-1.31-1.54,3.38-3.5,5.79-3.31-1.18.2-1.86-1.15-3,.21-.72-1.94,2.93-1.37,4.09-2.15,8.36-.79-2.9,1.95.75,2.52,2.92-1.36,10.7-2.36,6.93-4.66,6.54-1.38,3.18,2.69,6.83,3.27-5.49-1.15-6.38,3.69-10.72,1.77-1.11,1.36-.46,2.13,1.37,2.7,5.32-1.76,16.19-1.21,15.38-4.3l3.12,1.54,2.23-2.72,1.23.39c-3.18-2.71-8.65-3.27-11.22-5.77-.69-1.36,2.93-1.37,4.7-2l1.95,2.32c4.8-.22,2.66-5.43,9.27-5.65-3.35,4.08,8.07,3.65,13,5.19,3.77-6.79-1.49-4.46,1.75-10.26,4.77-.78,11.8-3.71,17.86-2.95-13.68,2.54,7.42,2.86-3.16,7a25.66,25.66,0,0,0,6.54-1.37c2.68,4.25-2.73,4.26,1.06,7.16l.38-3.3c3.74,1.74,6.34,4.82,12.95,4.61a6.66,6.66,0,0,1,6.39-3.7c1.34,2.13,2,2.9,8,1.91,10.3-8.15-13-5.76-16.36-10.78-16.75,1.59-20.08-12.53-41.09-11.68-2.86,2.52-1.62,2.9-7.5,5.05-3.24,5.81,9.79,2.48,14.17,5-1.74,1.16-3.46,2.33-5.31,1.76l2.61,3.08c-9.42,3.32-6.29-4.24-14.52-1.12l1.73-1.16-4.7,1.94,1.24.39c-3,.78-3.39,3.5-8.23,3.12l3.42-2.91c-2.27,2.13-3.72-1.73-7.22,0,1.8-1.7,2.1-3.48,3.36-3.78a74.39,74.39,0,0,0-15.57.5,153.32,153.32,0,0,1-48,6.17,14.4,14.4,0,0,0,2.07.87,6.05,6.05,0,0,1-6.53-1.07c-3-.16-6-.31-9-.6a109,109,0,0,1-19.18,3c-.53-1.68-.09-2.33.85-2.55-2.76.59-4.41,1.36-1.46,2.89-4.82.91-7.15-.63-10.73-.42l7.86-3.73c-3.53-.91-3.07,2.83-7.79,2-7.21,1.49,3.46,2.73,2.78,5.32-1,0-2,0-3-.09l3.47,3.25a23.79,23.79,0,0,1-13-5.16l4.73,1c1.41-4.12-7.78,0-10-2.18l.61-.32c-7.17.17,1.67,2-3.18,2.68l-8.73-3,1.59,2.59c-5,1.91-14.8-2-23-2.71-4.69-.78-11,1.42-17,1.63,1.11.64,3.42,1.37,2.69,2.2-3.6-.23-11.43-.44-8.56-3.15l-5.16,2a8.22,8.22,0,0,1-4.37-1.22l1.33,1.27-6.19.61c.11-.57-2.06-1.91,1-2-6.58-3.42-15.54,1.7-26-.79l3.29-1c-6.47,1.51-6.57-3.26-13.55-2.2l1.27,2.23c-5.06.53-13.91-3.44-12.26-4.89-1.39,5.05-2.55-1.91-6.17,2.17l-2.25-5.09c-3.31.81-6.51,1.07-4.82,3.76-4.59-2.94-8.47-4-11.83-1.44a.23.23,0,0,1-.15.1l-.12.08,0-.07c-1.15.17-5.78-1.62-4.07.93-11.24-2.3-5.09-5.47-15.7-7.58l-1.18,3.28a58.56,58.56,0,0,0-23.32-1.06l-.13-3c-4.39-.28.13,3-6.59,2.12-.8-.72-1.41-1.8-1.07-2.52-6.43-1.32-14.48-5-24-7.53.21-.54,1.6-.77,2.28-.89a122.06,122.06,0,0,0-16.2-1.35,99.48,99.48,0,0,0-40.07-17.1c-13,4.2-22.35,10.56-25.31,18.39C29,383.61,39.21,391.75,53.19,399.61Z" transform="translate(-21.07 -359.22)"/></g></svg>